# xmcd
#
# Track frame offsets:
# 150
# 15459
# 37747
# 58888
# 85070
# 97568
# 117020
# 134441
# 148677
# 170960
#
# Disc length: 2493 seconds
#
#
# Revision: 0
# Processed by: cddbd v1.5.2PL0 Copyright (c) Steve Scherf et al.
# Submitted via: FreeRIP 2.942 
#
DISCID=7a09bb0a
DTITLE=Black Rain - Hundred Dollar Hickey
DYEAR=2006
DGENRE=Country
TTITLE0=Hundred Dollar Hickey
TTITLE1=Rez Girls
TTITLE2=Wild Women
TTITLE3=Marlena's Song
TTITLE4=Alone
TTITLE5=All Of Me
TTITLE6=Grazy Little Thing
TTITLE7=Falling
TTITLE8=Don't Tell Me It's Over
TTITLE9=More Than You Know
EXTD=
EXTT0=
EXTT1=
EXTT2=
EXTT3=
EXTT4=
EXTT5=
EXTT6=
EXTT7=
EXTT8=
EXTT9=
PLAYORDER=
